HIERARCHY
ROOT root     
{
	OFFSET 0.0000 0.0000 0.0000
	CHANNELS 6 Xposition Yposition Zposition Zrotation Yrotation Xrotation
	JOINT pelvis   
	{
		OFFSET 0.0000 0.0000 0.0000
		CHANNELS 3 Zrotation Yrotation Xrotation
		JOINT thorax   
		{
			OFFSET 0.0000 23.0750 -5.0000
			CHANNELS 3 Zrotation Yrotation Xrotation
			JOINT rclavicle
			{
				OFFSET 0.0000 28.0009 0.0000
				CHANNELS 3 Zrotation Yrotation Xrotation
				JOINT rhumerus 
				{
					OFFSET -18.5725 5.5939 0.0000
					CHANNELS 3 Zrotation Yrotation Xrotation
					JOINT rradius  
					{
						OFFSET -24.8459 0.0000 0.0000
						CHANNELS 3 Zrotation Yrotation Xrotation
						JOINT rhand    
						{
							OFFSET -24.5477 0.0000 0.0000
							CHANNELS 3 Zrotation Yrotation Xrotation
							End Site
							{
								OFFSET -8.1826 0.0000 0.0000
							}
						}
					}
				}
			}
			JOINT lclavicle
			{
				OFFSET 0.0000 28.0009 0.0000
				CHANNELS 3 Zrotation Yrotation Xrotation
				JOINT lhumerus 
				{
					OFFSET 18.5725 5.5939 0.0000
					CHANNELS 3 Zrotation Yrotation Xrotation
					JOINT lradius  
					{
						OFFSET 24.8459 0.0000 0.0000
						CHANNELS 3 Zrotation Yrotation Xrotation
						JOINT lhand    
						{
							OFFSET 24.5477 0.0000 0.0000
							CHANNELS 3 Zrotation Yrotation Xrotation
							End Site
							{
								OFFSET 8.1826 0.0000 0.0000
							}
						}
					}
				}
			}
			JOINT head     
			{
				OFFSET 0.0000 35.2030 0.0000
				CHANNELS 3 Zrotation Yrotation Xrotation
				End Site
				{
					OFFSET 0.0000 11.7343 0.0000
				}
			}
		}
		JOINT rfemur   
		{
			OFFSET -8.2817 0.0000 0.0000
			CHANNELS 3 Zrotation Yrotation Xrotation
			JOINT rtibia   
			{
				OFFSET 0.0000 -43.3627 0.0000
				CHANNELS 3 Zrotation Yrotation Xrotation
				JOINT rfoot    
				{
					OFFSET 0.0000 -38.2947 0.0000
					CHANNELS 3 Zrotation Yrotation Xrotation
					JOINT rtoes    
					{
						OFFSET 0.0000 0.0000 16.6054
						CHANNELS 3 Zrotation Yrotation Xrotation
						End Site
						{
							OFFSET 0.0000 0.0000 5.5351
						}
					}
				}
			}
		}
		JOINT lfemur   
		{
			OFFSET 8.2817 0.0000 0.0000
			CHANNELS 3 Zrotation Yrotation Xrotation
			JOINT ltibia   
			{
				OFFSET 0.0000 -43.3627 0.0000
				CHANNELS 3 Zrotation Yrotation Xrotation
				JOINT lfoot    
				{
					OFFSET 0.0000 -38.2947 0.0000
					CHANNELS 3 Zrotation Yrotation Xrotation
					JOINT ltoes    
					{
						OFFSET 0.0000 0.0000 16.6054
						CHANNELS 3 Zrotation Yrotation Xrotation
						End Site
						{
							OFFSET 0.0000 0.0000 5.5351
						}
					}
				}
			}
		}
	}
}
MOTION
Frames: 19
Frame Time: .0333333
67.782 75.136 8.5545 -52.8438 -85.3664 73.4921 0 -0 0 12.9705 -15.2317 11.3663 28.1102 -14.8369 -0.000127591 48.3008 -8.89452 3.15726 -1.59071e-06 82.7872 -1.8046e-06 -3.02755 6.57592 -0.173997 -16.3191 13.5993 9.50915e-05 -47.0719 0.273257 3.70358 180 -80.6804 -180 -0.950611 2.76376 -0.0229002 3.90384 2.91358 -21.2099 13.512 -7.07554 -56.0781 -0 -0 61.7495 -4.00584e-06 -7.12901 -15.0483 1.85993 -4.51044e-07 -1.45084 10.1541 3.12688 -12.4641 -0 -0 67.7657 -9.1205e-06 8.92187 8.12081 1.2704 -1.09309e-05 -36.1464 
66.823 75.263 8.3851 -49.9953 -85.3861 70.7474 0 -0 0 12.9002 -14.8218 11.3712 27.9561 -14.651 -1.41976e-05 48.8732 -8.40089 3.05005 -1.9155e-06 83.2347 -1.70169e-06 -3.22928 6.5868 -0.185906 -16.2998 13.5804 -0.000154572 -47.7633 0.552999 4.08673 180 -81.1588 -180 -0.932707 2.73351 -0.0223004 4.09051 2.49304 -21.1646 13.4216 -7.16522 -55.4894 -0 -0 61.879 2.85072e-05 -7.30885 -15.585 1.97352 7.24906e-07 -1.4786 10.0435 3.49322 -14.1541 -0 -0 69.6662 -3.93743e-08 10.3595 7.01007 1.27798 -3.47522e-06 -33.9276 
65.88 75.406 8.2209 -47.3499 -85.3991 68.1988 0 -0 0 12.8008 -14.3666 11.4052 27.7594 -14.4556 0.000130783 49.4388 -7.90283 3.006 -0 83.6893 -0 -3.40537 6.62163 -0.1971 -16.3031 13.5641 -0.000194889 -48.4312 0.848819 4.47119 180 -81.6379 180 -0.905904 2.70315 -0.0214005 4.25372 2.07598 -21.1004 13.3539 -7.2955 -54.8764 -0 -0 61.9372 9.52628e-06 -7.458 -16.1427 2.08445 1.06586e-06 -1.28894 9.89191 3.9145 -15.8978 -0 -0 71.481 -1.18489e-05 11.6363 5.84903 1.20232 6.92729e-06 -32.2182 
64.949 75.562 8.0622 -44.8641 -85.4338 65.8012 0 -0 0 12.675 -13.8735 11.4553 27.5263 -14.2568 0.000132849 49.9725 -7.40013 3.03487 -1.55603e-06 84.1605 -1.40492e-06 -3.55583 6.67792 -0.207504 -16.3243 13.5633 9.66438e-05 -49.0735 1.1568 4.86627 180 -82.1306 180 -0.870696 2.67256 -0.0202996 4.39096 1.67012 -21.0104 13.3036 -7.46306 -54.2434 -0 -0 61.9344 -1.93193e-05 -7.58373 -16.7124 2.19258 3.14783e-07 -0.998503 9.69274 4.36981 -17.6953 -0 -0 73.2013 -1.57475e-05 12.7161 4.65768 1.04979 -5.77312e-07 -30.7348 
64.028 75.729 7.9098 -42.5239 -85.4617 63.5426 0 -0 0 12.5199 -13.3478 11.5229 27.2585 -14.0585 -8.07592e-05 50.4622 -6.89144 3.14012 -6.15677e-06 84.6426 -6.31318e-06 -3.67666 6.7517 -0.216905 -16.3568 13.5686 1.21064e-05 -49.6951 1.50542 5.26066 180 -82.6204 -180 -0.8308 2.63772 -0.0191001 4.50102 1.2811 -20.8908 13.2629 -7.66181 -53.5871 -0 -0 61.8747 3.51927e-05 -7.68759 -17.2742 2.29535 -8.20705e-08 -0.738601 9.43917 4.84057 -19.528 -0 -0 74.8104 2.55662e-05 13.5827 3.48616 0.841711 -2.29699e-06 -29.5257 
63.119 75.904 7.7653 -40.2158 -85.5041 61.3235 0 -0 0 12.3408 -12.7965 11.5798 26.961 -13.8645 2.53223e-05 50.8881 -6.38341 3.32619 -1.7056e-06 85.1399 -1.85667e-06 -3.77442 6.83873 -0.225602 -16.3982 13.6078 4.3524e-05 -50.2855 1.86541 5.67828 -180 -83.1283 180 -0.789793 2.60197 -0.0178996 4.58334 0.911608 -20.7344 13.2221 -7.88512 -52.9326 -0 -0 61.7767 -6.59199e-05 -7.7691 -17.7973 2.38794 1.57964e-07 -0.600099 9.11884 5.29996 -21.4128 -0 -0 76.3047 1.59876e-05 14.2375 2.35785 0.597998 6.88833e-06 -28.4725 
62.213 76.084 7.6302 -37.9965 -85.5683 59.1752 0 -0 0 12.1251 -12.2179 11.6579 26.6356 -13.6782 -7.04563e-05 51.2494 -5.87044 3.58522 -2.92796e-06 85.6626 -2.71436e-06 -3.84279 6.93048 -0.2328 -16.4413 13.6598 -4.50484e-06 -50.851 2.26809 6.09692 -180 -83.6341 180 -0.755498 2.55968 -0.0168998 4.63868 0.564491 -20.5467 13.168 -8.12454 -52.2562 -0 -0 61.6534 5.23765e-05 -7.81765 -18.251 2.46212 1.93018e-07 -0.730303 8.72882 5.74157 -23.3006 -0 -0 77.6599 -6.86821e-06 14.6905 1.29685 0.340006 2.46761e-06 -27.5751 
61.308 76.267 7.5057 -35.8356 -85.6646 57.0688 0 -0 0 11.8795 -11.6156 11.7462 26.2813 -13.4989 -0.000141442 51.5423 -5.35933 3.9073 -8.1892e-06 86.2084 -8.43772e-06 -3.8814 7.01851 -0.238103 -16.4855 13.7223 9.10695e-05 -51.3873 2.722 6.51202 -180 -84.1357 180 -0.735202 2.51051 -0.0161001 4.66565 0.239883 -20.3262 13.0935 -8.37326 -51.5686 -0 -0 61.5194 -1.45404e-05 -7.82569 -18.607 2.51102 1.20132e-06 -1.17234 8.26734 6.15143 -25.1871 -0 -0 78.8656 -9.94682e-07 14.9635 0.310705 0.0830012 3.00619e-07 -26.7569 
60.407 76.451 7.3953 -33.6143 -85.768 54.904 0 -0 0 11.5928 -10.9929 11.8361 25.9042 -13.3286 -5.35043e-05 51.7612 -4.85471 4.28735 -2.75642e-06 86.7841 -2.60546e-06 -3.90049 7.1005 -0.242108 -16.5307 13.8304 7.5316e-05 -51.8842 3.18199 6.94953 180 -84.6515 -180 -0.733897 2.46111 -0.0158 4.66728 -0.0640082 -20.0766 12.9824 -8.63163 -50.8869 -0 -0 61.3987 -5.90844e-05 -7.78106 -18.8338 2.52585 -1.26154e-06 -2.04388 7.72211 6.50829 -27.0723 -0 -0 79.9115 -5.01247e-07 15.092 -0.600892 -0.161996 4.679e-07 -26.0141 
59.502 76.636 7.2967 -31.4532 -85.9169 52.7708 0 -0 0 11.2828 -10.348 11.947 25.4971 -13.1665 -0.000169728 51.9166 -4.35809 4.70474 -1.26013e-05 87.3654 -1.27576e-05 -3.89337 7.16687 -0.243898 -16.5805 13.9585 -3.00389e-05 -52.3412 3.67956 7.3828 180 -85.1737 180 -0.758593 2.40873 -0.0159 4.63945 -0.349108 -19.8052 12.8401 -8.88755 -50.1922 -0 -0 61.2947 -5.96188e-05 -7.67857 -18.9327 2.50492 1.51838e-06 -3.23866 7.11744 6.81894 -28.9263 -0 -0 80.7874 -7.79526e-07 15.0965 -1.44655 -0.390207 1.55673e-07 -25.2823 
58.594 76.82 7.2117 -29.2774 -86.0659 50.6152 0 -0 0 10.9467 -9.68359 12.0725 25.0633 -13.0075 3.59809e-05 52.01 -3.87696 5.14483 -1.64508e-05 87.9703 -1.66071e-05 -3.8651 7.21557 -0.243801 -16.638 14.1089 -9.03764e-06 -52.7506 4.20507 7.81346 180 -85.6851 -180 -0.812205 2.35794 -0.0167004 4.58418 -0.617882 -19.5189 12.6604 -9.14393 -49.4977 -0 -0 61.2204 4.10844e-05 -7.51099 -18.8969 2.44511 -1.90205e-06 -4.80212 6.45382 7.07311 -30.7443 -0 -0 81.4904 -1.29091e-05 15.0102 -2.23945 -0.600304 5.98099e-06 -24.5301 
57.683 77.003 7.1383 -27.1209 -86.2693 48.4531 0 -0 0 10.5981 -9.00111 12.2163 24.6013 -12.853 -4.71917e-05 52.0462 -3.41255 5.5938 -0 88.6142 -0 -3.82004 7.24599 -0.241996 -16.7093 14.291 -8.72468e-05 -53.1097 4.7429 8.24538 180 -86.2068 180 -0.894186 2.31244 -0.0179999 4.50072 -0.873381 -19.2266 12.4504 -9.39941 -48.7995 -0 -0 61.1733 3.64513e-05 -7.27878 -18.7505 2.35099 8.45342e-07 -6.55589 5.75112 7.27251 -32.5214 -0 -0 82.0175 -8.86623e-06 14.8576 -2.99002 -0.792805 -2.47059e-07 -23.7628 
56.767 77.185 7.0763 -24.9585 -86.4715 46.2765 0 -0 0 10.2385 -8.30352 12.3781 24.1138 -12.6985 -0.000128971 52.0337 -2.97059 6.0359 -2.23377e-05 89.3042 -2.20555e-05 -3.76232 7.2592 -0.238701 -16.7971 14.4958 -1.88311e-06 -53.4137 5.2951 8.67178 180 -86.7125 -180 -1.00231 2.27504 -0.0199007 4.39215 -1.11807 -18.9359 12.2107 -9.65826 -48.099 -0 -0 61.1556 -5.0769e-06 -6.98334 -18.5078 2.2267 -2.41788e-06 -8.48369 5.01985 7.4162 -34.2527 -0 -0 82.3714 1.15289e-05 14.6637 -3.70825 -0.969617 5.84314e-06 -22.9745 
55.846 77.366 7.0238 -22.7521 -86.6788 44.0476 0 -0 0 9.87598 -7.59424 12.5592 23.6008 -12.5429 3.67438e-05 51.9776 -2.55263 6.45972 -0.000215181 89.8141 -0.000214978 -3.69667 7.25819 -0.234497 -16.9032 14.7255 2.61498e-05 -53.6587 5.85486 9.09163 180 -87.2278 -180 -1.1302 2.24809 -0.0221998 4.2604 -1.35383 -18.6586 11.9484 -9.92203 -47.3937 -0 -0 61.1594 1.98902e-05 -6.63184 -18.2029 2.07995 -5.21586e-06 -10.488 4.27608 7.508 -35.9397 -0 -0 82.5591 -1.68789e-05 14.4508 -4.39917 -1.1324 2.74447e-06 -22.1846 
54.922 77.546 6.9768 -20.6325 -86.9023 41.8908 0 -0 0 9.52633 -6.87702 12.7534 23.0656 -12.3848 -8.13698e-05 51.8832 -2.16287 6.85212 -180 89.3519 -180 -3.6262 7.24417 -0.229607 -17.0324 14.9619 4.11058e-05 -53.8478 6.43754 9.49103 180 -87.7345 -180 -1.27076 2.23122 -0.0246994 4.10572 -1.58186 -18.3993 11.6803 -10.1909 -46.6825 -0 -0 61.1671 1.36873e-05 -6.2373 -17.8789 1.92172 -5.92438e-06 -12.3592 3.54284 7.5562 -37.5868 -0 -0 82.592 1.72952e-05 14.23 -5.0664 -1.28302 -8.69337e-06 -21.3841 
53.995 77.723 6.9374 -18.3121 -87.1315 39.5277 0 -0 0 9.17111 -6.15697 12.9649 22.5153 -12.2259 1.9771e-05 51.7548 -1.79528 7.21301 -180 88.6765 -180 -3.56204 7.22722 -0.225004 -17.1757 15.23 -1.48618e-05 -53.9824 7.00361 9.89198 -180 -88.2134 180 -1.4132 2.22808 -0.0275 3.93859 -1.80258 -18.1673 11.395 -10.4771 -45.9639 -0 -0 61.1777 -2.54587e-05 -5.80434 -17.5387 1.75461 -4.68221e-06 -14.3033 2.8112 7.55855 -39.1909 -0 -0 82.4738 4.16808e-06 14.0268 -5.70283 -1.42213 -7.76702e-06 -20.6663 
53.064 77.898 6.9041 -15.6813 -87.3748 36.8425 0 -0 0 8.81004 -5.43906 13.191 21.9553 -12.0697 -1.78703e-05 51.5943 -1.44848 7.53834 -180 87.9703 -180 -3.50825 7.21038 -0.221094 -17.3281 15.5231 -1.71593e-05 -54.0698 7.55509 10.2875 180 -88.7014 180 -1.54825 2.23746 -0.0301998 3.76387 -2.01519 -17.9668 11.0958 -10.7827 -45.2334 -0 -0 61.1733 2.11311e-05 -5.34488 -17.1987 1.58448 -5.38901e-06 -16.3725 2.08662 7.52097 -40.7545 -0 -0 82.2145 1.70853e-05 13.8549 -6.30263 -1.55097 4.02663e-06 -20.0846 
52.131 78.071 6.8684 -13.1668 -87.5883 34.2834 0 -0 0 8.47933 -4.72665 13.4139 21.3845 -11.9116 -1.15909e-05 51.4069 -1.12731 7.82048 -180 87.2925 -180 -3.46134 7.18979 -0.217496 -17.4977 15.8053 2.63601e-05 -54.1142 8.13904 10.6498 -180 -89.2041 180 -1.66937 2.253 -0.0327995 3.57634 -2.21849 -17.7956 10.8166 -11.0912 -44.4872 -0 -0 61.1306 3.07954e-05 -4.88186 -16.9168 1.42364 -2.33767e-06 -18.0842 1.40358 7.46187 -42.2949 -0 -0 81.8303 1.60418e-06 13.7167 -6.87488 -1.67351 6.91503e-06 -19.5267 
51.196 78.24 6.8372 -10.1258 -87.7996 31.1957 0 -0 0 8.13444 -4.02567 13.6456 20.8133 -11.7611 3.97963e-05 51.194 -0.817738 8.06992 -180 86.6192 -180 -3.43238 7.17511 -0.215307 -17.6602 16.1191 2.56428e-05 -54.1278 8.6955 11.0132 180 -89.7106 180 -1.76699 2.27749 -0.0351 3.39152 -2.40953 -17.6567 10.5253 -11.4194 -43.725 -0 -0 61.0543 -9.50678e-06 -4.4112 -16.6451 1.26587 -9.16847e-06 -19.9862 0.725382 7.3733 -43.7963 -0 -0 81.3164 4.3541e-06 13.6362 -7.40088 -1.78986 -2.63939e-06 -19.164 
